<svg xmlns="http://www.w3.org/2000/svg" width="35.665" height="27.03" viewBox="0 0 35.665 27.03"><path d="M30.211,2.264A29.5,29.5,0,0,0,22.854,0a20.214,20.214,0,0,0-.943,1.916,27.4,27.4,0,0,0-8.166,0A20.3,20.3,0,0,0,12.8,0,29.7,29.7,0,0,0,5.439,2.269,29.728,29.728,0,0,0,.152,22.5h0a29.659,29.659,0,0,0,9.024,4.53,21.8,21.8,0,0,0,1.933-3.117,19.192,19.192,0,0,1-3.044-1.453c.255-.185.5-.376.746-.561a21.2,21.2,0,0,0,18.043,0c.244.2.494.39.746.561a19.266,19.266,0,0,1-3.049,1.456,21.6,21.6,0,0,0,1.933,3.114,29.524,29.524,0,0,0,9.03-4.527h0A29.71,29.71,0,0,0,30.211,2.264Zm-18.3,16.163A3.411,3.411,0,0,1,8.7,14.867,3.39,3.39,0,0,1,11.9,11.293a3.376,3.376,0,0,1,3.215,3.574A3.407,3.407,0,0,1,11.908,18.427Zm11.849,0a3.407,3.407,0,0,1-3.209-3.56,3.39,3.39,0,0,1,3.209-3.574,3.368,3.368,0,0,1,3.206,3.574A3.4,3.4,0,0,1,23.757,18.427Z" transform="translate(0)" fill="#fff"/></svg>