<svg xmlns="http://www.w3.org/2000/svg" xmlns:xlink="http://www.w3.org/1999/xlink" width="35.665" height="35.665" viewBox="0 0 35.665 35.665"><defs><linearGradient id="a" x1="3.38" y1="-4.031" x2="3.387" y2="-10.59" gradientUnits="objectBoundingBox"><stop offset="0" stop-color="#70efff"/><stop offset="1" stop-color="#5770ff"/></linearGradient></defs><g transform="translate(-1.001 -451.363)"><g transform="translate(1.001 451.363)"><path d="M14.851,6409.083h19.3a8.166,8.166,0,0,1,8.184,8.185v19.3a8.166,8.166,0,0,1-8.184,8.184h-19.3a8.166,8.166,0,0,1-8.184-8.184v-19.3A8.166,8.166,0,0,1,14.851,6409.083Z" transform="translate(-6.667 -6409.083)" fill="url(#a)"/><path d="M112.652,3577.295a1.425,1.425,0,0,0-.533.1l3.356,3.455,3.393,3.517.062.074.1.1.1.1.2.21,2.91,2.984a2.778,2.778,0,0,0,.3.215,1.131,1.131,0,0,0,.452.141,1.074,1.074,0,0,0,.5-.117,1.917,1.917,0,0,0,.3-.239l3.368-3.48,3.405-3.5,3.282-3.381a1.439,1.439,0,0,0-.693-.173Zm-1.028.421a1.951,1.951,0,0,0-.582,1.424v11.343a2,2,0,0,0,.4,1.214l.471-.446,3.5-3.406,3.108-3.009-.062-.074-3.405-3.5-3.405-3.517Zm22.662.111-3.319,3.43-3.393,3.5-.062.062,3.232,3.133,3.5,3.406.211.2a2.037,2.037,0,0,0,.3-1.077V3579.14A1.991,1.991,0,0,0,134.286,3577.827Zm-15.368,7.418-3.1,3.009-3.517,3.406-.446.433a1.459,1.459,0,0,0,.793.248h20.495a1.474,1.474,0,0,0,.929-.347l-.223-.223-3.517-3.406-3.232-3.121-2.91,3a3.407,3.407,0,0,1-.417.291,1.861,1.861,0,0,1-.791.207,1.9,1.9,0,0,1-.787-.232,1.54,1.54,0,0,1-.333-.242Z" transform="translate(-104.838 -3567.153)" fill="#fff"/></g></g></svg>