<?xml version="1.0" encoding="utf-8"?>
<!-- Generator: Adobe Illustrator 26.0.2, SVG Export Plug-In . SVG Version: 6.00 Build 0)  -->
<svg version="1.1" id="Layer_1" xmlns="http://www.w3.org/2000/svg" xmlns:xlink="http://www.w3.org/1999/xlink" x="0px" y="0px"
	 viewBox="0 0 169.4 38" style="enable-background:new 0 0 169.4 38;" xml:space="preserve">
<style type="text/css">
	.st0{enable-background:new    ;}
	.st1{fill:#A9A9A9;}
</style>
<g transform="translate(-300 -18)">
	<g class="st0">
		<path class="st1" d="M344.6,37.2c-0.3-1.8-1.7-3.1-3.9-3.1c-2.6,0-4.3,2.2-4.3,5.7c0,3.6,1.7,5.7,4.4,5.7c2.1,0,3.4-1.1,3.8-3h3.2
			c-0.4,3.5-3.2,5.9-7.1,5.9c-4.7,0-7.8-3.2-7.8-8.5c0-5.2,3.1-8.5,7.7-8.5c4.2,0,6.8,2.7,7.1,6H344.6z"/>
		<path class="st1" d="M349.5,39.8c0-5.3,3.1-8.5,7.8-8.5s7.8,3.2,7.8,8.5c0,5.3-3.1,8.5-7.8,8.5S349.5,45.1,349.5,39.8z
			 M361.6,39.8c0-3.6-1.7-5.7-4.4-5.7s-4.4,2.1-4.4,5.7c0,3.7,1.7,5.8,4.4,5.8C359.9,45.5,361.6,43.4,361.6,39.8z"/>
		<path class="st1" d="M366.9,39.8c0-5.2,2.8-8.5,6.9-8.5c2.4,0,4.2,1.2,5.2,3h0.1v-8.8h3.4V48h-3.3v-2.8h-0.1
			c-1,1.9-2.8,3.1-5.2,3.1C369.7,48.3,366.9,45,366.9,39.8z M370.4,39.8c0,3.5,1.7,5.6,4.3,5.6c2.6,0,4.3-2.2,4.3-5.6
			c0-3.4-1.7-5.6-4.3-5.6C372.1,34.1,370.4,36.3,370.4,39.8z"/>
		<path class="st1" d="M400,43.2c-0.5,3-3.3,5.1-7.1,5.1c-4.8,0-7.8-3.3-7.8-8.5c0-5.2,3-8.6,7.6-8.6c4.6,0,7.4,3.2,7.4,8.2v1.2
			h-11.6v0.2c0,2.9,1.7,4.8,4.4,4.8c1.9,0,3.3-1,3.8-2.4H400z M388.6,38.3h8.2c-0.1-2.5-1.7-4.3-4-4.3S388.7,35.8,388.6,38.3z"/>
		<path class="st1" d="M402,39.8c0-5.3,3.1-8.5,7.8-8.5s7.8,3.2,7.8,8.5c0,5.3-3.1,8.5-7.8,8.5S402,45.1,402,39.8z M414.2,39.8
			c0-3.6-1.7-5.7-4.4-5.7s-4.4,2.1-4.4,5.7c0,3.7,1.7,5.8,4.4,5.8C412.5,45.5,414.2,43.4,414.2,39.8z"/>
		<path class="st1" d="M420.1,49.3h3.4c0.5,1.4,2,2.3,3.9,2.3c2.6,0,4.2-1.5,4.2-3.8v-2.7h-0.1c-0.9,1.8-2.9,3-5.2,3
			c-4.1,0-6.8-3.2-6.8-8.3c0-5.2,2.7-8.4,6.9-8.4c2.3,0,4.2,1.2,5.2,3.1h0.1v-2.8h3.3v16.1c0,3.9-3,6.5-7.7,6.5
			C423.4,54.2,420.5,52.1,420.1,49.3z M431.6,39.7c0-3.4-1.7-5.6-4.4-5.6c-2.6,0-4.3,2.2-4.3,5.6c0,3.4,1.7,5.5,4.3,5.5
			C429.9,45.3,431.6,43.1,431.6,39.7z"/>
		<path class="st1" d="M452.4,48h-3.2v-2.8h-0.1c-0.9,2-2.6,3.1-5.1,3.1c-3.6,0-5.8-2.3-5.8-6.1V31.6h3.4v10c0,2.5,1.2,3.8,3.5,3.8
			c2.4,0,3.9-1.7,3.9-4.2v-9.6h3.4V48z"/>
		<path class="st1" d="M455.4,45.8l8.8-11.5v-0.1h-8.7v-2.7H468v2.3l-8.5,11.4v0.1h8.6V48h-12.7V45.8z"/>
	</g>
	<g transform="translate(36.36 -238.88)">
		<path class="st1" d="M269.7,283.9c-0.6,0-1.1-0.5-1.1-1.1v0v-17.9c0-0.6,0.5-1.1,1.1-1.1h0h17.9c0.6,0,1.1,0.5,1.1,1.1v0v17.9
			c0,0.6-0.5,1.1-1.1,1.1h0L269.7,283.9z M272.1,267.3v13.1h13.1v-13.1H272.1z"/>
		<path class="st1" d="M264.7,288.9c-0.6,0-1.1-0.5-1.1-1.1v0v-8.2c0-0.6,0.5-1.1,1.1-1.1h0h1.3c0.6,0,1.1,0.5,1.1,1.1v0v5.8h13.1
			v-10c0-0.6,0.5-1.1,1.1-1.1h0h1.3c0.6,0,1.1,0.5,1.1,1.1v0v12.4c0,0.6-0.5,1.1-1.1,1.1h0H264.7z"/>
	</g>
</g>
</svg>
