<svg xmlns="http://www.w3.org/2000/svg" width="166.007" height="38" viewBox="0 0 166.007 38"><g transform="translate(-300 -18)"><text transform="translate(332.007 48)" fill="#a9a9a9" font-size="32" font-family="SFProDisplay-Regular, SF Pro Display"><tspan x="0" y="0">codeoguz</tspan></text><g transform="translate(36.36 -238.88)"><path d="M359.788,283.862a1.058,1.058,0,0,1-1.058-1.058V264.938a1.058,1.058,0,0,1,1.058-1.058h17.866a1.058,1.058,0,0,1,1.058,1.058V282.8a1.058,1.058,0,0,1-1.058,1.058Zm2.381-16.543v13.1h13.1v-13.1h-13.1Z" transform="translate(-90.058)" fill="#a9a9a9"/><path d="M264.7,475.946a1.058,1.058,0,0,1-1.058-1.058V466.7a1.058,1.058,0,0,1,1.058-1.058h1.323a1.058,1.058,0,0,1,1.058,1.058v5.805h13.1V462.468a1.058,1.058,0,0,1,1.058-1.058h1.323a1.058,1.058,0,0,1,1.058,1.058v12.42a1.058,1.058,0,0,1-1.058,1.058Z" transform="translate(0 -187.078)" fill="#a9a9a9"/></g></g></svg>