<svg xmlns="http://www.w3.org/2000/svg" xmlns:xlink="http://www.w3.org/1999/xlink" width="105.898" height="131.066" viewBox="0 0 105.898 131.066"><defs><linearGradient id="a" x1="-8.062" y1="-3.768" x2="-8.062" y2="-3.766" gradientUnits="objectBoundingBox"><stop offset="0.2" stop-opacity="0.149"/><stop offset="0.85" stop-color="#616161" stop-opacity="0.012"/></linearGradient><linearGradient id="b" x1="-6.183" y1="-4.325" x2="-6.181" y2="-4.325" gradientUnits="objectBoundingBox"><stop offset="0.2" stop-opacity="0.549"/><stop offset="0.85" stop-color="#616161" stop-opacity="0.012"/></linearGradient></defs><g transform="translate(-807.1 -149.5)"><path d="M827.285,235.213,807.1,215.027,872.633,149.5h40.359M913,209.972H872.639L857.515,225.09,877.7,245.275" fill="rgba(66,165,245,0.8)"/><path d="M1643.8,1759.079l15.118,15.118h40.359l-35.3-35.3" transform="translate(-786.285 -1493.631)" fill="#0d47a1"/><path d="M1309.6,1424.755l20.149-20.155,20.149,20.149-20.149,20.155Z" transform="translate(-472.222 -1179.474)" fill="#42a5f5"/><path d="M1644.1,1759.249l20.149-20.149,2.814,2.814-20.149,20.149Z" transform="translate(-786.567 -1493.819)" fill="url(#a)"/><path d="M1643.8,1758.985l29.947-10.346-9.761-9.84" transform="translate(-786.285 -1493.537)" fill="url(#b)"/></g></svg>