<svg xmlns="http://www.w3.org/2000/svg" width="35.665" height="34.785" viewBox="0 0 35.665 34.785"><path d="M17.832,0A17.834,17.834,0,0,0,12.2,34.754c.89.165,1.178-.388,1.178-.857v-3.32c-4.96,1.079-5.993-2.1-5.993-2.1A4.723,4.723,0,0,0,5.4,25.863c-1.618-1.107.123-1.083.123-1.083a3.743,3.743,0,0,1,2.733,1.838A3.8,3.8,0,0,0,13.446,28.1a3.783,3.783,0,0,1,1.132-2.384c-3.96-.453-8.124-1.982-8.124-8.814a6.9,6.9,0,0,1,1.837-4.786A6.414,6.414,0,0,1,8.464,7.4s1.5-.478,4.905,1.828a16.9,16.9,0,0,1,8.93,0C25.7,6.917,27.2,7.4,27.2,7.4a6.408,6.408,0,0,1,.175,4.72A6.883,6.883,0,0,1,29.209,16.9c0,6.849-4.171,8.357-8.142,8.8A4.262,4.262,0,0,1,22.29,29V33.9c0,.474.285,1.031,1.19.856A17.836,17.836,0,0,0,17.832,0Z" fill="#fff"/></svg>