<svg xmlns="http://www.w3.org/2000/svg" width="131" height="131" viewBox="0 0 131 131"><rect width="131" height="131" transform="translate(0 0)" fill="#f7df1e"/><path d="M219.413,328.809c2.64,4.311,6.075,7.479,12.15,7.479,5.1,0,8.363-2.551,8.363-6.075,0-4.223-3.349-5.719-8.967-8.176l-3.079-1.321c-8.888-3.786-14.792-8.53-14.792-18.557,0-9.237,7.038-16.269,18.037-16.269,7.831,0,13.46,2.725,17.517,9.861l-9.591,6.158c-2.112-3.786-4.39-5.278-7.926-5.278-3.607,0-5.894,2.288-5.894,5.278,0,3.695,2.288,5.191,7.573,7.479l3.079,1.319c10.465,4.487,16.373,9.062,16.373,19.348,0,11.089-8.711,17.163-20.409,17.163-11.438,0-18.828-5.451-22.444-12.595Zm-43.508,1.067c1.935,3.433,3.695,6.335,7.926,6.335,4.046,0,6.6-1.583,6.6-7.739V286.593h12.316v42.045c0,12.753-7.477,18.557-18.391,18.557-9.861,0-15.572-5.1-18.476-11.25Z" transform="translate(-131.37 -226.413)"/></svg>