<svg xmlns="http://www.w3.org/2000/svg" width="122.449" height="131.066" viewBox="0 0 122.449 131.066"><g transform="translate(11.5 12.309)"><circle cx="10.914" cy="10.914" r="10.914" transform="translate(38.81 42.31)" fill="#61dafb"/><g transform="translate(-11.5 -12.309)"><path d="M60.724-.5c15.959,0,31,2.388,42.359,6.724,12.165,4.645,18.865,11.143,18.865,18.3s-6.7,13.653-18.865,18.3c-11.357,4.336-26.4,6.724-42.359,6.724s-31-2.388-42.359-6.724C6.2,38.175-.5,31.677-.5,24.522s6.7-13.653,18.865-18.3C29.722,1.888,44.765-.5,60.724-.5Zm0,44.72c15.326,0,29.7-2.264,40.46-6.374,9.812-3.747,15.44-8.6,15.44-13.324S111,14.944,101.185,11.2C90.42,7.088,76.05,4.824,60.724,4.824s-29.7,2.264-40.46,6.374c-9.812,3.747-15.44,8.6-15.44,13.324s5.628,9.578,15.44,13.324C31.029,41.957,45.4,44.22,60.724,44.22Z" transform="translate(0.5 41.011)" fill="#61dafb"/><path d="M61.224,0c15.959,0,31,2.388,42.359,6.724,12.165,4.645,18.865,11.143,18.865,18.3s-6.7,13.653-18.865,18.3c-11.357,4.336-26.4,6.724-42.359,6.724s-31-2.388-42.359-6.724C6.7,38.675,0,32.177,0,25.022s6.7-13.653,18.865-18.3C30.222,2.388,45.265,0,61.224,0Zm0,44.72c15.326,0,29.7-2.264,40.46-6.374,9.812-3.747,15.44-8.6,15.44-13.324S111.5,15.444,101.685,11.7C90.92,7.588,76.55,5.324,61.224,5.324s-29.7,2.264-40.46,6.374c-9.812,3.747-15.44,8.6-15.44,13.324s5.628,9.578,15.44,13.324C31.529,42.457,45.9,44.72,61.224,44.72Z" transform="translate(52.282 0) rotate(60)" fill="#61dafb"/><path d="M61.224,0c15.959,0,31,2.388,42.359,6.724,12.165,4.645,18.865,11.143,18.865,18.3s-6.7,13.653-18.865,18.3c-11.357,4.336-26.4,6.724-42.359,6.724s-31-2.388-42.359-6.724C6.7,38.675,0,32.177,0,25.022s6.7-13.653,18.865-18.3C30.222,2.388,45.265,0,61.224,0Zm0,44.72c15.326,0,29.7-2.264,40.46-6.374,9.812-3.747,15.44-8.6,15.44-13.324S111.5,15.444,101.685,11.7C90.92,7.588,76.55,5.324,61.224,5.324s-29.7,2.264-40.46,6.374c-9.812,3.747-15.44,8.6-15.44,13.324s5.628,9.578,15.44,13.324C31.529,42.457,45.9,44.72,61.224,44.72Z" transform="translate(113.506 25.022) rotate(120)" fill="#61dafb"/></g></g></svg>