<svg xmlns="http://www.w3.org/2000/svg" width="92.856" height="131.067" viewBox="0 0 92.856 131.067"><g transform="translate(-193.633 -276.362)"><g transform="translate(193.633 276.362)"><path d="M167.489,100.62l-8.459,94.767L121,205.929,83.083,195.4l-8.45-94.782Z" transform="translate(-74.633 -74.862)" fill="#264de4"/><path d="M286.726,211.877l7.229-80.983H256v89.5Z" transform="translate(-209.572 -97.387)" fill="#2965f1"/><path d="M150.31,268.217l1.042,11.625h26.014V268.217Z" transform="translate(-130.938 -199.556)" fill="#ebebeb"/><path d="M171.281,176.3H142.132l1.057,11.625h28.092Z" transform="translate(-124.853 -131.173)" fill="#ebebeb"/><path d="M181.9,361.181V349.086l-.051.014-12.946-3.5-.828-9.271H156.409l1.629,18.252,23.812,6.61Z" transform="translate(-135.475 -250.235)" fill="#ebebeb"/><path d="M160,0h14.079V5.888h-8.192v5.888h8.192v5.888H160Z" transform="translate(-138.147)" fill="#fff"/><path d="M226,0h14.079V5.12h-8.192V6.144h8.192V17.919H226V12.543h8.192V11.52H226Z" transform="translate(-187.252)" fill="#fff"/><path d="M292,0h14.079V5.12h-8.192V6.144h8.192V17.919H292V12.543h8.192V11.52H292Z" transform="translate(-236.356)" fill="#fff"/><path d="M270.157,211.458l-1.349,15.076-12.965,3.5v12.094l23.831-6.6.175-1.964,2.732-30.6.284-3.122,2.1-23.528h-29.12V187.93h16.38l-1.058,11.9H255.843v11.624Z" transform="translate(-209.455 -131.173)" fill="#fff"/></g></g></svg>