<svg xmlns="http://www.w3.org/2000/svg" width="95.386" height="131.066" viewBox="0 0 95.386 131.066"><g transform="translate(825 -2787.533)"><path d="M23.833,111.72,39.966,8.491a2.979,2.979,0,0,1,5.571-.946L62.22,38.662,68.87,26a2.979,2.979,0,0,1,5.273,0l45.023,85.718H23.833Z" transform="translate(-848.781 2781.563)" fill="#ffa000"/><path d="M79.566,71.508,62.213,38.647,23.833,111.719Z" transform="translate(-848.781 2781.564)" fill="#f57c00"/><path d="M119.168,111.719,106.811,35.259a2.979,2.979,0,0,0-5.042-1.61L23.834,111.718,66.957,135.9a8.937,8.937,0,0,0,8.714,0l43.5-24.184Z" transform="translate(-848.781 2781.564)" fill="#ffca28"/><path d="M106.811,35.259a2.979,2.979,0,0,0-5.042-1.61L86.3,49.156,74.137,26a2.979,2.979,0,0,0-5.273,0l-6.65,12.662L45.529,7.545a2.979,2.979,0,0,0-5.571.953L23.833,111.72h-.052l.052.06.425.209L101.746,34.41a2.979,2.979,0,0,1,5.05,1.609l12.252,75.775.119-.075L106.811,35.259ZM23.975,111.578,39.966,9.228a2.98,2.98,0,0,1,5.572-.953L62.22,39.392l6.65-12.662a2.979,2.979,0,0,1,5.273,0L86.06,49.395,23.974,111.578Z" transform="translate(-848.781 2781.563)" fill="rgba(255,255,255,0.2)"/><path d="M75.671,135.172a8.937,8.937,0,0,1-8.714,0L23.938,111.056l-.1.663L66.957,135.9a8.937,8.937,0,0,0,8.714,0l43.5-24.176-.112-.685L75.671,135.173Z" transform="translate(-848.781 2781.564)" fill="#a52714" opacity="0.2"/></g></svg>