<svg xmlns="http://www.w3.org/2000/svg" width="92.873" height="131.066" viewBox="0 0 92.873 131.066"><g transform="translate(-74.6)"><path d="M108.4,0h5.888V5.837h5.427V0H125.6V17.663h-5.888V11.775h-5.376v5.888H108.4M133.385,5.888h-5.2V0h16.307V5.888h-5.222V17.663h-5.888M147.08,0h6.169l3.789,6.221L160.827,0H167V17.663h-5.888V8.908l-4.121,6.349-4.121-6.349v8.755H147.08M169.914,0H175.8V11.827h8.345v5.837H169.914" transform="translate(-25.148)" fill="#fff"/><path d="M83.048,195.418,74.6,100.6h92.873l-8.448,94.767L120.96,205.914" transform="translate(0 -74.848)" fill="#e44d26"/><path d="M256,220.468V131h37.963l-7.245,80.893" transform="translate(-134.964 -97.465)" fill="#f16529"/><path d="M142,176.3h29.183v11.622H154.748l1.075,11.9h15.359v11.6H145.174m.512,5.837h11.673l.819,9.292,13,3.481v12.134l-23.858-6.656" transform="translate(-50.146 -131.169)" fill="#ebebeb"/><path d="M284.932,176.3H255.8v11.622h28.056m-1.05,11.9H255.8v11.622h14.335l-1.357,15.1L255.8,230.032v12.083l23.807-6.6" transform="translate(-134.815 -131.169)" fill="#fff"/></g></svg>