<svg xmlns="http://www.w3.org/2000/svg" xmlns:xlink="http://www.w3.org/1999/xlink" width="108.188" height="131.066" viewBox="0 0 108.188 131.066"><defs><linearGradient id="a" x1="0.324" y1="0.248" x2="1.649" y2="1.377" gradientUnits="objectBoundingBox"><stop offset="0" stop-color="#5a9fd4"/><stop offset="1" stop-color="#306998"/></linearGradient><linearGradient id="b" x1="1.483" y1="1.955" x2="1.011" y2="1.297" gradientUnits="objectBoundingBox"><stop offset="0" stop-color="#ffd43b"/><stop offset="1" stop-color="#ffe873"/></linearGradient><radialGradient id="c" cx="0.5" cy="0.5" r="0.5" gradientTransform="translate(-0.127 1.408) rotate(-90) scale(1 0.852)" gradientUnits="objectBoundingBox"><stop offset="0" stop-color="#b8b8b8" stop-opacity="0.498"/><stop offset="1" stop-color="#7f7f7f" stop-opacity="0"/></radialGradient></defs><g transform="translate(0)"><path d="M53.45,0A74.511,74.511,0,0,0,40.98,1.065C29.937,3.016,27.932,7.1,27.932,14.63v9.945h26.1v3.315H18.139c-7.584,0-14.225,4.558-16.3,13.23-2.4,9.94-2.5,16.142,0,26.521,1.855,7.726,6.285,13.23,13.869,13.23h8.972V68.95a16.583,16.583,0,0,1,16.3-16.211H67.045A13.147,13.147,0,0,0,80.093,39.479V14.63c0-7.072-5.966-12.384-13.048-13.565A81.385,81.385,0,0,0,53.45,0ZM39.338,8a4.973,4.973,0,1,1-4.9,4.988A4.951,4.951,0,0,1,39.338,8Z" transform="translate(0 0)" fill="url(#a)"/><path d="M84.115,28.657V40.245c0,8.984-7.617,16.545-16.3,16.545H41.748A13.312,13.312,0,0,0,28.7,70.051V94.9c0,7.072,6.15,11.232,13.048,13.261a43.659,43.659,0,0,0,26.065,0c6.57-1.9,13.048-5.73,13.048-13.261V84.954H54.8V81.639H93.908c7.584,0,10.41-5.29,13.048-13.23,2.724-8.174,2.609-16.035,0-26.521-1.874-7.55-5.454-13.23-13.048-13.23ZM69.455,91.584a4.973,4.973,0,1,1-4.9,4.958A4.925,4.925,0,0,1,69.455,91.584Z" transform="translate(-0.768 -0.766)" fill="url(#b)"/><ellipse cx="34.97" cy="6.781" rx="34.97" ry="6.781" transform="translate(19.354 117.504)" opacity="0.444" fill="url(#c)"/></g></svg>