<?xml version="1.0" standalone="no"?>
<!DOCTYPE svg PUBLIC "-//W3C//DTD SVG 20010904//EN"
 "http://www.w3.org/TR/2001/REC-SVG-20010904/DTD/svg10.dtd">
<svg version="1.0" xmlns="http://www.w3.org/2000/svg"
 width="700.000000pt" height="700.000000pt" viewBox="0 0 700.000000 700.000000"
 preserveAspectRatio="xMidYMid meet">
<metadata>
Created by potrace 1.14, written by Peter Selinger 2001-2017
</metadata>
<g transform="translate(0.000000,700.000000) scale(0.100000,-0.100000)"
fill="#000000" stroke="none">
<path d="M2629 5148 c-52 -10 -78 -29 -99 -73 -20 -41 -20 -60 -20 -1246 0
-1344 -5 -1247 69 -1296 l34 -23 711 0 711 0 -1 -88 c-1 -48 -2 -94 -3 -103
-1 -15 -76 -16 -866 -17 l-865 0 0 402 c0 382 -1 403 -20 434 -39 64 -69 73
-215 70 -108 -3 -135 -6 -158 -22 -62 -42 -61 -26 -62 -646 0 -326 3 -578 8
-595 12 -38 34 -63 71 -82 26 -13 178 -15 1241 -15 1344 -1 1258 -5 1300 65
18 29 20 55 23 315 l3 282 277 0 c310 0 327 3 367 71 20 33 20 54 20 1249 0
1203 0 1215 -20 1250 -12 19 -35 43 -53 53 -32 19 -72 19 -1227 21 -657 0
-1208 -2 -1226 -6z m2071 -1317 l0 -866 -105 0 -105 -1 0 346 c0 385 -1 392
-69 437 -31 21 -46 23 -155 23 -139 0 -177 -13 -211 -70 -19 -33 -20 -53 -22
-380 -1 -190 -2 -347 -2 -350 -1 -3 -240 -5 -533 -5 l-532 0 0 866 -1 867 868
0 867 0 0 -867z"/>
</g>
</svg>
